HIERARCHY
ROOT Hips
{
	OFFSET	0.00	0.00	0.00
	CHANNELS 6 Xposition Yposition Zposition Zrotation Xrotation Yrotation
	JOINT LeftUpLeg
	{
		OFFSET	 0.126116	-0.014019	-0.065224
		CHANNELS 3 Zrotation Xrotation Yrotation
		JOINT LeftLeg
		{
			OFFSET	 0.000000	 0.000000	 0.569914
			CHANNELS 3 Zrotation Xrotation Yrotation
			JOINT LeftFoot
			{
				OFFSET	 0.000000	 0.000000	 0.544423
				CHANNELS 3 Zrotation Xrotation Yrotation
				JOINT LeftToeBase
				{
					OFFSET	 0.000000	 0.000000	 0.207117
					CHANNELS 3 Zrotation Xrotation Yrotation
					End Site
					{
						OFFSET	 0.000000	 0.000000	 0.207117
					}
				}
			}
		}
	}
	JOINT RightUpLeg
	{
		OFFSET	-0.124023	-0.008373	-0.065224
		CHANNELS 3 Zrotation Xrotation Yrotation
		JOINT RightLeg
		{
			OFFSET	 0.000000	 0.000000	 0.570047
			CHANNELS 3 Zrotation Xrotation Yrotation
			JOINT RightFoot
			{
				OFFSET	 0.000000	 0.000000	 0.544354
				CHANNELS 3 Zrotation Xrotation Yrotation
				JOINT RightToeBase
				{
					OFFSET	 0.000000	 0.000000	 0.207540
					CHANNELS 3 Zrotation Xrotation Yrotation
					End Site
					{
						OFFSET	 0.000000	 0.000000	 0.207540
					}
				}
			}
		}
	}
	JOINT Spine
	{
		OFFSET	 0.000184	-0.007763	 0.117403
		CHANNELS 3 Zrotation Xrotation Yrotation
		JOINT Spine1
		{
			OFFSET	 0.000000	 0.000000	 0.137269
			CHANNELS 3 Zrotation Xrotation Yrotation
			JOINT Spine2
			{
				OFFSET	 0.000000	 0.000000	 0.156879
				CHANNELS 3 Zrotation Xrotation Yrotation
				JOINT LeftShoulder
				{
					OFFSET	 0.080501	-0.002496	 0.160144
					CHANNELS 3 Zrotation Xrotation Yrotation
					JOINT LeftArm
					{
						OFFSET	 0.000000	 0.000000	 0.164363
						CHANNELS 3 Zrotation Xrotation Yrotation
						JOINT LeftForeArm
						{
							OFFSET	 0.000000	 0.000000	 0.364576
							CHANNELS 3 Zrotation Xrotation Yrotation
							JOINT LeftHand
							{
								OFFSET	 0.000000	 0.000000	 0.360812
								CHANNELS 3 Zrotation Xrotation Yrotation
								JOINT LeftHandIndex1
								{
									OFFSET	 0.000000	 0.000000	 0.086006
									CHANNELS 3 Zrotation Xrotation Yrotation
									JOINT LeftHandIndex2
									{
										OFFSET	 0.000000	 0.000000	 0.047236
										CHANNELS 3 Zrotation Xrotation Yrotation
										JOINT LeftHandIndex3
										{
											OFFSET	-0.004284	-0.000551	 0.038166
											CHANNELS 3 Zrotation Xrotation Yrotation
											End Site
											{
												OFFSET	-0.004284	-0.000551	 0.038166
											}
										}
									}
								}
							}
						}
					}
				}
				JOINT Neck
				{
					OFFSET	 0.000000	 0.000000	 0.176489
					CHANNELS 3 Zrotation Xrotation Yrotation
					JOINT Head
					{
						OFFSET	 0.000000	-0.001747	 0.077940
						CHANNELS 3 Zrotation Xrotation Yrotation
						End Site
						{
							OFFSET	 0.000000	-0.001747	 0.077940
						}
					}
				}
				JOINT RightShoulder
				{
					OFFSET	-0.080363	 0.000306	 0.159706
					CHANNELS 3 Zrotation Xrotation Yrotation
					JOINT RightArm
					{
						OFFSET	 0.000000	 0.000000	 0.164196
						CHANNELS 3 Zrotation Xrotation Yrotation
						JOINT RightForeArm
						{
							OFFSET	 0.000000	 0.000000	 0.365611
							CHANNELS 3 Zrotation Xrotation Yrotation
							JOINT RightHand
							{
								OFFSET	 0.000000	 0.000000	 0.360648
								CHANNELS 3 Zrotation Xrotation Yrotation
								JOINT RightHandIndex1
								{
									OFFSET	 0.000000	 0.000000	 0.069977
									CHANNELS 3 Zrotation Xrotation Yrotation
									JOINT RightHandIndex2
									{
										OFFSET	 0.000000	 0.000000	 0.052305
										CHANNELS 3 Zrotation Xrotation Yrotation
										JOINT RightHandIndex3
										{
											OFFSET	 0.009002	-0.000782	 0.042196
											CHANNELS 3 Zrotation Xrotation Yrotation
											End Site
											{
												OFFSET	 0.009002	-0.000782	 0.042196
											}
										}
									}
								}
							}
						}
					}
				}
			}
		}
	}
}
MOTION
Frames:    9
Frame Time: 0.03333334
 0.000297	 0.019662	 1.272012	-0.002965	 0.003726	 0.173972	-8.771176	-1.772027	 179.116000	 1.466334	-12.500700	-0.730798	-5.087846	 71.593210	-1.242907	-2.385833	 28.452760	 0.000004	 8.612012	-1.865689	-179.363600	-1.458018	-12.109030	 0.694192	 4.869722	 71.221360	 1.276242	 2.384658	 28.388730	 0.000004	-4.804317	 2.667938	 0.293756	-2.158519	 3.855236	-0.797023	 6.534053	-4.741617	 1.422521	-91.776190	 78.527420	-180.000000	 60.328120	 40.988740	-62.333970	-8.433741	 0.193519	-0.643918	-31.636150	-20.284330	-4.863966	-2.635965	 4.993658	 6.788941	-5.165319	 0.784187	 3.516649	-5.225038	 0.466231	 0.424329	-0.000002	-3.783157	-0.089647	 6.351209	 4.517154	-0.250761	 89.782160	 78.203900	 179.999900	-64.653400	 42.187360	 56.368430	 7.759372	 5.273607	 12.142120	 32.726750	-20.912510	 9.763156	 6.112037	 4.509576	-0.364401	 4.968462	 1.518543	-9.347576	 5.168945	 0.703820	 2.021906
 0.000299	 0.019626	 1.272613	-0.002742	 0.004138	 0.174445	-8.719288	-1.770415	 179.111200	 1.466419	-12.493920	-0.730387	-5.091233	 71.490580	-1.237679	-2.385833	 28.452760	 0.000004	 8.560052	-1.863050	-179.360000	-1.458125	-12.100460	 0.693684	 4.872835	 71.117980	 1.271820	 2.384658	 28.388730	 0.000004	-5.122668	 2.622450	 0.286406	-2.150198	 4.012751	-0.782341	 6.507932	-4.946029	 1.430315	-91.776220	 78.527450	-180.000000	 60.372720	 41.006540	-62.272510	-8.604294	 0.196752	-0.753977	-32.203490	-21.839150	-5.090307	-2.635965	 4.993658	 6.788941	-5.165319	 0.784187	 3.516649	-5.225038	 0.466231	 0.424329	-0.000002	-3.783157	-0.089647	 6.317512	 4.425227	-0.244347	 89.782100	 78.203920	 180.000000	-64.462590	 42.087620	 56.687190	 7.800646	 5.212492	 12.091490	 33.363220	-22.484840	 10.007430	 6.112037	 4.509576	-0.364401	 4.968462	 1.518543	-9.347576	 5.168945	 0.703820	 2.021906
 0.000301	 0.019572	 1.273534	-0.002375	 0.004769	 0.174309	-8.640625	-1.767022	 179.104600	 1.466583	-12.481380	-0.729630	-5.095862	 71.333950	-1.230217	-2.385833	 28.452760	 0.000004	 8.481392	-1.859363	-179.353800	-1.458275	-12.088360	 0.692968	 4.877500	 70.961800	 1.265228	 2.384658	 28.388730	 0.000004	-5.589684	 2.554003	 0.274725	-2.128749	 4.249716	-0.756970	 6.441352	-5.255467	 1.435730	-91.776230	 78.527450	-180.000000	 60.438910	 41.030330	-62.176810	-8.863155	 0.201604	-0.918249	-33.088370	-24.169700	-5.490544	-2.635965	 4.993658	 6.788941	-5.165319	 0.784187	 3.516649	-5.225038	 0.466231	 0.424329	-0.000002	-3.783157	-0.089647	 6.240290	 4.289971	-0.233971	 89.782040	 78.203900	-180.000000	-64.144530	 41.875790	 57.372020	 7.846563	 5.033309	 11.832130	 34.385370	-24.881780	 10.425590	 6.112037	 4.509576	-0.364401	 4.968462	 1.518543	-9.347576	 5.168945	 0.703820	 2.021906
 0.000301	 0.019517	 1.274487	-0.001973	 0.005425	 0.173082	-8.559648	-1.762317	 179.098800	 1.466791	-12.465610	-0.728679	-5.099815	 71.171680	-1.223185	-2.385833	 28.452760	 0.000004	 8.400605	-1.856405	-179.346600	-1.458402	-12.077900	 0.692353	 4.882291	 70.802460	 1.258420	 2.384658	 28.388730	 0.000004	-6.054392	 2.484548	 0.262215	-2.095599	 4.490133	-0.727350	 6.339126	-5.571724	 1.432963	-91.776190	 78.527430	-180.000000	 60.501170	 41.053200	-62.069400	-9.132002	 0.209188	-1.091619	-34.037490	-26.528170	-5.977960	-2.635965	 4.993658	 6.788941	-5.165319	 0.784187	 3.516649	-5.225038	 0.466231	 0.424329	-0.000002	-3.783157	-0.089647	 6.128392	 4.156482	-0.222612	 89.782090	 78.203890	 180.000000	-63.789630	 41.461180	 58.199500	 7.774584	 4.844469	 11.615280	 35.585250	-27.447700	 10.883000	 6.112037	 4.509576	-0.364401	 4.968462	 1.518543	-9.347576	 5.168945	 0.703820	 2.021906
 0.000298	 0.019465	 1.275415	-0.001578	 0.006046	 0.170763	-8.480872	-1.756529	 179.094000	 1.467024	-12.447480	-0.727586	-5.102915	 71.012760	-1.216953	-2.385833	 28.452760	 0.000004	 8.322366	-1.854318	-179.338600	-1.458504	-12.069660	 0.691866	 4.887142	 70.648800	 1.251737	 2.384658	 28.388730	 0.000004	-6.492770	 2.418273	 0.249809	-2.052639	 4.719611	-0.695415	 6.207189	-5.875806	 1.421785	-91.776160	 78.527430	 180.000000	 60.552500	 41.078080	-61.955350	-9.396626	 0.218086	-1.262508	-35.002230	-28.763960	-6.527566	-2.635965	 4.993658	 6.788941	-5.165319	 0.784187	 3.516649	-5.225038	 0.466231	 0.424329	-0.000002	-3.783157	-0.089647	 5.988615	 4.032616	-0.211038	 89.782100	 78.203870	 180.000000	-63.249040	 40.986420	 58.831720	 7.677246	 4.828313	 11.786200	 36.790410	-29.887530	 11.418260	 6.112037	 4.509576	-0.364401	 4.968462	 1.518543	-9.347576	 5.168945	 0.703820	 2.021906
 0.000291	 0.019414	 1.276336	-0.001176	 0.006644	 0.167352	-8.389239	-1.749970	 179.089200	 1.467292	-12.426820	-0.726339	-5.088310	 70.853290	-1.215612	-2.385833	 28.452760	 0.000004	 8.256216	-1.852814	-179.330500	-1.458579	-12.063490	 0.691501	 4.907393	 70.496540	 1.241209	 2.384658	 28.388730	 0.000004	-6.917870	 2.353647	 0.237337	-1.999259	 4.943396	-0.660777	 6.043763	-6.174485	 1.401999	-91.776170	 78.527470	 180.000000	 60.596690	 41.100990	-61.833640	-9.664597	 0.228520	-1.435390	-36.006950	-30.913270	-7.149809	-2.635965	 4.993658	 6.788941	-5.165319	 0.784187	 3.516649	-5.225038	 0.466231	 0.424329	-0.000002	-3.783157	-0.089647	 5.819165	 3.915082	-0.199076	 89.782200	 78.203890	 179.999900	-62.459270	 40.403040	 59.087890	 7.424500	 5.098104	 12.678150	 38.041920	-32.272370	 12.029400	 6.112037	 4.509576	-0.364401	 4.968462	 1.518543	-9.347576	 5.168945	 0.703820	 2.021906
 0.000282	 0.019365	 1.277258	-0.000775	 0.007209	 0.162691	-8.310426	-1.741906	 179.086400	 1.467597	-12.403450	-0.724929	-5.091109	 70.691010	-1.210111	-2.385833	 28.452760	 0.000004	 8.176936	-1.852535	-179.320500	-1.458623	-12.059680	 0.691276	 4.911476	 70.344490	 1.234528	 2.384658	 28.388730	 0.000004	-7.334666	 2.290240	 0.224914	-1.934795	 5.163124	-0.623325	 5.846948	-6.469784	 1.373009	-91.776080	 78.527470	 179.999900	 60.630580	 41.123440	-61.698500	-9.939480	 0.241684	-1.614820	-37.061030	-32.969360	-7.848469	-2.635965	 4.993658	 6.788941	-5.165319	 0.784187	 3.516649	-5.225038	 0.466231	 0.424329	-0.000002	-3.783157	-0.089647	 5.618340	 3.802858	-0.186682	 89.782070	 78.203900	-180.000000	-61.363490	 39.699370	 58.951060	 7.077839	 5.686240	 14.356910	 39.341840	-34.576530	 12.728320	 6.112037	 4.509576	-0.364401	 4.968462	 1.518543	-9.347576	 5.168945	 0.703820	 2.021906
 0.000269	 0.019318	 1.278214	-0.000373	 0.007739	 0.156728	-8.229493	-1.732599	 179.084500	 1.467936	-12.377100	-0.723339	-5.093544	 70.523420	-1.204862	-2.385833	 28.452760	 0.000004	 8.095650	-1.853599	-179.309200	-1.458637	-12.058940	 0.691233	 4.915912	 70.190150	 1.227385	 2.384658	 28.388730	 0.000004	-7.749667	 2.227370	 0.212405	-1.857652	 5.381152	-0.582610	 5.612000	-6.764802	 1.333599	-91.776190	 78.527430	-180.000000	 60.653600	 41.140860	-61.546420	-10.225800	 0.256523	-1.800478	-38.177980	-34.926780	-8.630475	-2.635965	 4.993658	 6.788941	-5.165319	 0.784187	 3.516649	-5.225038	 0.466231	 0.424329	-0.000002	-3.783157	-0.089647	 5.381736	 3.694609	-0.173716	 89.782120	 78.203890	 180.000000	-60.063880	 38.923440	 59.319850	 6.684261	 6.026996	 15.540630	 40.590480	-36.825100	 13.470330	 6.112037	 4.509576	-0.364401	 4.968462	 1.518543	-9.347576	 5.168945	 0.703820	 2.021906
 0.000254	 0.019275	 1.279150	-0.000001	 0.008200	 0.149671	-8.150408	-1.722677	 179.083800	 1.468294	-12.349440	-0.721672	-5.095562	 70.358820	-1.200065	-2.385833	 28.452760	 0.000004	 8.016326	-1.855781	-179.297300	-1.458611	-12.060970	 0.691353	 4.920343	 70.040920	 1.220228	 2.384658	 28.388730	 0.000004	-8.142152	 2.168483	 0.200652	-1.771712	 5.585558	-0.540919	 5.350962	-7.043258	 1.285488	-91.776180	 78.527450	 180.000000	 60.664140	 41.152980	-61.384040	-10.510530	 0.274029	-1.986866	-39.291190	-36.652510	-9.443055	-2.635965	 4.993658	 6.788941	-5.165319	 0.784187	 3.516649	-5.225038	 0.466231	 0.424329	-0.000002	-3.783157	-0.089647	 5.121673	 3.595902	-0.160892	 89.782050	 78.203900	-180.000000	-58.695610	 38.132550	 60.280020	 6.265220	 6.018270	 15.960030	 41.666140	-38.886710	 14.180550	 6.112037	 4.509576	-0.364401	 4.968462	 1.518543	-9.347576	 5.168945	 0.703820	 2.021906
